<svg xmlns="http://www.w3.org/2000/svg" xmlns:xlink="http://www.w3.org/1999/xlink" width="500" zoomAndPan="magnify" viewBox="0 0 375 374.999991" height="500" preserveAspectRatio="xMidYMid meet" version="1.0"><defs><g/><clipPath id="7dcb828018"><path d="M 92.128906 168 L 266.128906 168 L 266.128906 196.421875 L 92.128906 196.421875 Z M 92.128906 168 " clip-rule="nonzero"/></clipPath><clipPath id="ee281f82f8"><path d="M 115 80.179688 L 244 80.179688 L 244 162 L 115 162 Z M 115 80.179688 " clip-rule="nonzero"/></clipPath></defs><g fill="#2c3892" fill-opacity="1"><g transform="translate(45.10557, 261.293874)"><g><path d="M 17.429688 0 L 27.210938 0 L 44.074219 -43.886719 L 33.417969 -43.886719 L 22.382812 -14.355469 L 17.117188 -28.277344 L 11.285156 -43.886719 L 0.5625 -43.886719 Z M 17.429688 0 "/></g></g></g><g fill="#2c3892" fill-opacity="1"><g transform="translate(89.10783, 261.293874)"><g><path d="M 15.738281 0.625 C 20.625 0.625 24.640625 -0.941406 27.460938 -3.824219 L 28.527344 0 L 35.609375 0 L 35.609375 -19.8125 C 35.609375 -28.527344 29.71875 -33.792969 19.875 -33.792969 C 11.472656 -33.792969 5.957031 -29.78125 4.765625 -22.632812 L 13.917969 -22.632812 C 14.484375 -24.953125 16.863281 -26.519531 19.9375 -26.519531 C 23.699219 -26.519531 26.269531 -24.386719 26.269531 -21.128906 L 26.269531 -19.625 L 14.355469 -19.625 C 7.523438 -19.625 3.132812 -15.671875 3.132812 -9.59375 C 3.132812 -3.261719 7.960938 0.625 15.738281 0.625 Z M 12.539062 -9.96875 C 12.539062 -12.226562 14.417969 -13.667969 17.304688 -13.667969 L 26.332031 -13.667969 C 26.144531 -9.214844 22.695312 -6.207031 17.929688 -6.207031 C 14.671875 -6.207031 12.539062 -7.710938 12.539062 -9.96875 Z M 12.539062 -9.96875 "/></g></g></g><g fill="#2c3892" fill-opacity="1"><g transform="translate(128.220933, 261.293874)"><g><path d="M 4.765625 0 L 14.292969 0 L 14.292969 -46.394531 L 4.765625 -46.394531 Z M 4.765625 0 "/></g></g></g><g fill="#2c3892" fill-opacity="1"><g transform="translate(146.649125, 261.293874)"><g><path d="M 14.230469 0 L 23.761719 0 L 37.492188 -32.914062 L 27.148438 -32.914062 L 23.386719 -22.570312 L 19.058594 -11.410156 L 14.671875 -22.570312 L 10.972656 -32.914062 L 0.5625 -32.914062 Z M 14.230469 0 "/></g></g></g><g fill="#2c3892" fill-opacity="1"><g transform="translate(184.069815, 261.293874)"><g><path d="M 4.765625 0 L 14.292969 0 L 14.292969 -32.914062 L 4.765625 -32.914062 Z M 3.386719 -43.574219 C 3.386719 -40.0625 5.894531 -37.617188 9.53125 -37.617188 C 13.164062 -37.617188 15.671875 -40.0625 15.671875 -43.574219 C 15.671875 -47.085938 13.164062 -49.527344 9.53125 -49.527344 C 5.894531 -49.527344 3.386719 -47.085938 3.386719 -43.574219 Z M 3.386719 -43.574219 "/></g></g></g><g fill="#2c3892" fill-opacity="1"><g transform="translate(207.785352, 261.293874)"><g><path d="M 19.875 0 L 24.765625 0 L 24.765625 -5.078125 L 20.125 -5.078125 C 15.800781 -5.078125 13.792969 -7.273438 13.792969 -11.976562 L 13.792969 -27.710938 L 24.324219 -27.710938 L 24.324219 -32.539062 L 13.792969 -32.539062 L 13.792969 -40.625 L 9.71875 -40.625 L 9.214844 -36.238281 C 8.839844 -33.292969 7.960938 -32.539062 4.953125 -32.539062 L 1.691406 -32.539062 L 1.691406 -27.710938 L 8.527344 -27.710938 L 8.527344 -11.722656 C 8.527344 -4.261719 12.664062 0 19.875 0 Z M 19.875 0 "/></g></g></g><g fill="#2c3892" fill-opacity="1"><g transform="translate(234.988961, 261.293874)"><g><path d="M 19.9375 0.816406 C 27.273438 0.816406 33.292969 -3.132812 35.925781 -9.46875 L 29.96875 -9.46875 C 27.960938 -6.019531 24.261719 -4.136719 20 -4.136719 C 13.792969 -4.136719 9.402344 -8.023438 8.589844 -14.167969 L 36.738281 -14.167969 C 37.117188 -25.515625 30.40625 -33.355469 20 -33.355469 C 10.15625 -33.355469 3.261719 -26.332031 3.261719 -16.300781 C 3.261719 -6.207031 10.09375 0.816406 19.9375 0.816406 Z M 8.652344 -18.808594 C 9.59375 -24.578125 13.980469 -28.402344 20 -28.402344 C 25.957031 -28.402344 30.34375 -24.765625 31.472656 -18.808594 Z M 8.652344 -18.808594 "/></g></g></g><g fill="#2c3892" fill-opacity="1"><g transform="translate(274.227428, 261.293874)"><g><path d="M 5.832031 0 L 11.097656 0 L 11.097656 -14.042969 L 14.984375 -14.042969 C 16.488281 -14.042969 17.867188 -14.105469 19.121094 -14.355469 L 28.085938 0 L 34.355469 0 L 24.199219 -16.113281 C 26.582031 -17.617188 28.277344 -20.0625 29.59375 -23.636719 L 32.851562 -32.539062 L 27.210938 -32.539062 L 24.765625 -25.578125 C 22.945312 -20.3125 20.4375 -18.933594 15.171875 -18.933594 L 11.097656 -18.933594 L 11.097656 -46.394531 L 5.832031 -46.394531 Z M 5.832031 0 "/></g></g></g><g clip-path="url(#7dcb828018)"><path fill="#161b6e" d="M 204.367188 189.105469 L 154.101562 189.105469 C 153.753906 189.105469 153.535156 188.738281 153.691406 188.433594 L 157.5625 180.984375 C 157.640625 180.832031 157.796875 180.734375 157.96875 180.734375 L 200.5 180.734375 C 200.671875 180.734375 200.828125 180.832031 200.90625 180.984375 L 204.777344 188.433594 C 204.9375 188.738281 204.714844 189.105469 204.367188 189.105469 Z M 265.230469 189.949219 L 244.414062 169.132812 C 243.703125 168.421875 242.738281 168.023438 241.734375 168.023438 L 116.738281 168.023438 C 115.730469 168.023438 114.765625 168.421875 114.054688 169.132812 L 93.238281 189.949219 C 92.527344 190.660156 92.128906 191.625 92.128906 192.628906 C 92.128906 194.722656 93.828125 196.421875 95.917969 196.421875 L 262.550781 196.421875 C 264.644531 196.421875 266.339844 194.722656 266.339844 192.628906 C 266.339844 191.625 265.941406 190.660156 265.230469 189.949219 " fill-opacity="1" fill-rule="nonzero"/></g><g clip-path="url(#ee281f82f8)"><path fill="#161b6e" d="M 237.074219 80.21875 L 121.398438 80.21875 C 118.050781 80.21875 115.3125 82.957031 115.3125 86.304688 L 115.3125 154.984375 C 115.3125 158.328125 118.050781 161.066406 121.398438 161.066406 L 237.074219 161.066406 C 240.417969 161.066406 243.15625 158.328125 243.15625 154.984375 L 243.15625 86.304688 C 243.15625 82.957031 240.417969 80.21875 237.074219 80.21875 Z M 236.113281 87.265625 L 236.113281 154.023438 L 122.355469 154.023438 L 122.355469 87.265625 L 236.113281 87.265625 " fill-opacity="1" fill-rule="nonzero"/></g><g fill="#2c3892" fill-opacity="1"><g transform="translate(155.559534, 133.199398)"><g><path d="M 15.28125 -7.46875 L 15.28125 -3.484375 L 1.34375 -9.078125 L 1.34375 -12.796875 L 15.28125 -18.390625 L 15.28125 -14.4375 L 6.5 -11.109375 L 6.5 -10.78125 Z M 15.28125 -7.46875 "/></g></g></g><g fill="#2c3892" fill-opacity="1"><g transform="translate(172.596643, 133.199398)"><g><path d="M 4.15625 3.234375 L 0.09375 3.234375 L 8.515625 -23.890625 L 12.59375 -23.890625 Z M 4.15625 3.234375 "/></g></g></g><g fill="#2c3892" fill-opacity="1"><g transform="translate(185.864893, 133.199398)"><g><path d="M 15.671875 -9.078125 L 1.734375 -3.484375 L 1.734375 -7.46875 L 10.515625 -10.78125 L 10.515625 -11.109375 L 1.734375 -14.4375 L 1.734375 -18.390625 L 15.671875 -12.796875 Z M 15.671875 -9.078125 "/></g></g></g></svg>